<?xml version="1.0" encoding="utf-8"?>
<!-- Generator: Adobe Illustrator 27.0.0, SVG Export Plug-In . SVG Version: 6.00 Build 0)  -->
<svg version="1.1" id="레이어_1" xmlns="http://www.w3.org/2000/svg" xmlns:xlink="http://www.w3.org/1999/xlink" x="0px"
	 y="0px" viewBox="0 0 814.11 87.84" style="enable-background:new 0 0 814.11 87.84;" xml:space="preserve">
<style type="text/css">
	.st0{font-family:'Helvetica';}
	.st1{font-size:20px;}
</style>
<g>
	<path d="M44.69,39.94H13.23V56.6h35.86v11.65H0V3.47h47.5v11.47H13.23v13.75h31.46V39.94z"/>
	<path d="M78.92,29.62c-4.25,0-7.16,1.8-8.75,5.41c-0.82,1.9-1.23,4.34-1.23,7.29v25.93H56.46V20.43h12.08v6.99
		c1.61-2.46,3.13-4.23,4.57-5.32c2.58-1.93,5.84-2.9,9.8-2.9c4.95,0,9,1.3,12.15,3.89c3.15,2.59,4.72,6.89,4.72,12.9v32.26H86.96
		V39.11c0-2.52-0.34-4.45-1.01-5.8C84.72,30.85,82.37,29.62,78.92,29.62z"/>
	<path d="M122.63,76.64c1.35,1.14,3.62,1.71,6.81,1.71c4.51,0,7.53-1.51,9.05-4.53c1-1.93,1.49-5.19,1.49-9.76v-3.08
		c-1.2,2.05-2.49,3.59-3.87,4.61c-2.49,1.9-5.73,2.86-9.71,2.86c-6.15,0-11.07-2.16-14.74-6.48c-3.68-4.32-5.52-10.17-5.52-17.56
		c0-7.12,1.77-13.1,5.32-17.95c3.54-4.85,8.57-7.27,15.07-7.27c2.4,0,4.5,0.37,6.28,1.1c3.05,1.26,5.51,3.57,7.38,6.94v-6.9h12.17
		v45.44c0,6.18-1.04,10.84-3.12,13.97c-3.57,5.39-10.43,8.09-20.57,8.09c-6.12,0-11.12-1.2-14.99-3.6s-6.01-5.99-6.42-10.77h13.62
		C121.27,74.94,121.84,75.99,122.63,76.64z M120.52,51.9c1.7,4.04,4.75,6.06,9.14,6.06c2.93,0,5.41-1.11,7.43-3.32
		c2.02-2.21,3.03-5.73,3.03-10.57c0-4.54-0.96-8-2.88-10.37c-1.92-2.37-4.49-3.56-7.71-3.56c-4.39,0-7.43,2.07-9.1,6.2
		c-0.88,2.2-1.32,4.91-1.32,8.13C119.12,47.25,119.59,49.73,120.52,51.9z"/>
	<path d="M174.7,3.07v11.56H162V3.07H174.7z M174.7,20.34v47.9H162v-47.9H174.7z"/>
	<path d="M207.12,29.62c-4.25,0-7.16,1.8-8.75,5.41c-0.82,1.9-1.23,4.34-1.23,7.29v25.93h-12.48V20.43h12.08v6.99
		c1.61-2.46,3.13-4.23,4.57-5.32c2.58-1.93,5.84-2.9,9.8-2.9c4.95,0,9,1.3,12.15,3.89c3.15,2.59,4.72,6.89,4.72,12.9v32.26h-12.83
		V39.11c0-2.52-0.34-4.45-1.01-5.8C212.92,30.85,210.58,29.62,207.12,29.62z"/>
	<path d="M278.31,54.18c-0.32,2.84-1.8,5.73-4.44,8.66c-4.1,4.66-9.84,6.99-17.23,6.99c-6.09,0-11.47-1.96-16.13-5.89
		s-6.99-10.31-6.99-19.16c0-8.29,2.1-14.65,6.31-19.07c4.2-4.42,9.66-6.64,16.37-6.64c3.98,0,7.57,0.75,10.77,2.24
		c3.19,1.49,5.83,3.85,7.91,7.08c1.87,2.84,3.09,6.14,3.65,9.89c0.32,2.2,0.45,5.36,0.4,9.49h-32.78c0.18,4.81,1.68,8.17,4.53,10.11
		c1.73,1.2,3.81,1.8,6.24,1.8c2.58,0,4.67-0.73,6.28-2.2c0.88-0.79,1.65-1.89,2.33-3.3H278.31z M265.91,39.5
		c-0.21-3.31-1.21-5.82-3.01-7.54s-4.04-2.57-6.7-2.57c-2.9,0-5.15,0.91-6.75,2.72c-1.6,1.82-2.6,4.28-3.01,7.38H265.91z"/>
	<path d="M326.11,54.18c-0.32,2.84-1.8,5.73-4.44,8.66c-4.1,4.66-9.84,6.99-17.23,6.99c-6.09,0-11.47-1.96-16.13-5.89
		s-6.99-10.31-6.99-19.16c0-8.29,2.1-14.65,6.31-19.07c4.2-4.42,9.66-6.64,16.37-6.64c3.98,0,7.57,0.75,10.77,2.24
		c3.19,1.49,5.83,3.85,7.91,7.08c1.87,2.84,3.09,6.14,3.65,9.89c0.32,2.2,0.45,5.36,0.4,9.49h-32.78c0.18,4.81,1.68,8.17,4.53,10.11
		c1.73,1.2,3.81,1.8,6.24,1.8c2.58,0,4.67-0.73,6.28-2.2c0.88-0.79,1.65-1.89,2.33-3.3H326.11z M313.72,39.5
		c-0.21-3.31-1.21-5.82-3.01-7.54s-4.04-2.57-6.7-2.57c-2.9,0-5.15,0.91-6.75,2.72c-1.6,1.82-2.6,4.28-3.01,7.38H313.72z"/>
	<path d="M356.99,31.9c-5.04,0-8.42,1.64-10.15,4.92c-0.97,1.85-1.45,4.69-1.45,8.53v22.9h-12.61v-47.9h11.95v8.35
		c1.93-3.19,3.62-5.38,5.05-6.55c2.34-1.96,5.39-2.94,9.14-2.94c0.23,0,0.43,0.01,0.59,0.02c0.16,0.02,0.52,0.04,1.08,0.07v12.83
		c-0.79-0.09-1.49-0.15-2.11-0.18C357.87,31.92,357.37,31.9,356.99,31.9z"/>
	<path d="M406.69,54.18c-0.32,2.84-1.8,5.73-4.44,8.66c-4.1,4.66-9.84,6.99-17.23,6.99c-6.09,0-11.47-1.96-16.13-5.89
		s-6.99-10.31-6.99-19.16c0-8.29,2.1-14.65,6.31-19.07c4.2-4.42,9.66-6.64,16.37-6.64c3.98,0,7.57,0.75,10.77,2.24
		c3.19,1.49,5.83,3.85,7.91,7.08c1.88,2.84,3.09,6.14,3.65,9.89c0.32,2.2,0.45,5.36,0.4,9.49h-32.78c0.18,4.81,1.68,8.17,4.53,10.11
		c1.73,1.2,3.81,1.8,6.24,1.8c2.58,0,4.67-0.73,6.28-2.2c0.88-0.79,1.65-1.89,2.33-3.3H406.69z M394.29,39.5
		c-0.21-3.31-1.21-5.82-3.01-7.54s-4.04-2.57-6.7-2.57c-2.9,0-5.15,0.91-6.75,2.72c-1.6,1.82-2.6,4.28-3.01,7.38H394.29z"/>
	<path d="M457.08,3.56v64.69h-12.17v-6.64c-1.79,2.84-3.82,4.91-6.11,6.2s-5.13,1.93-8.53,1.93c-5.6,0-10.31-2.26-14.13-6.79
		c-3.82-4.53-5.74-10.33-5.74-17.42c0-8.17,1.88-14.6,5.65-19.29c3.76-4.69,8.8-7.03,15.09-7.03c2.9,0,5.48,0.64,7.73,1.91
		s4.09,3.04,5.49,5.3V3.56H457.08z M423.33,44.6c0,4.42,0.88,7.95,2.64,10.59c1.73,2.67,4.37,4,7.91,4s6.24-1.32,8.09-3.96
		s2.77-6.05,2.77-10.24c0-5.86-1.48-10.05-4.44-12.57c-1.82-1.52-3.93-2.29-6.33-2.29c-3.66,0-6.35,1.38-8.06,4.15
		C424.19,37.07,423.33,40.5,423.33,44.6z"/>
	<path d="M524.61,54.93h-23.86l-4.48,13.32h-14.15l23.12-64.78h15.29l22.94,64.78h-14.68L524.61,54.93z M520.83,43.77l-8.09-25.49
		l-8.35,25.49H520.83z"/>
	<path d="M572.5,31.9c-5.04,0-8.42,1.64-10.15,4.92c-0.97,1.85-1.45,4.69-1.45,8.53v22.9h-12.61v-47.9h11.95v8.35
		c1.93-3.19,3.62-5.38,5.05-6.55c2.34-1.96,5.39-2.94,9.14-2.94c0.23,0,0.43,0.01,0.59,0.02c0.16,0.02,0.52,0.04,1.08,0.07v12.83
		c-0.79-0.09-1.49-0.15-2.11-0.18C573.38,31.92,572.88,31.9,572.5,31.9z"/>
	<path d="M622.63,37.53H609.8c-0.23-1.79-0.83-3.4-1.8-4.83c-1.41-1.93-3.59-2.9-6.55-2.9c-4.22,0-7.1,2.09-8.66,6.28
		c-0.82,2.23-1.23,5.19-1.23,8.88c0,3.52,0.41,6.34,1.23,8.48c1.49,3.98,4.31,5.98,8.44,5.98c2.93,0,5.01-0.79,6.24-2.37
		s1.98-3.63,2.24-6.15h12.79c-0.29,3.81-1.67,7.41-4.13,10.81c-3.93,5.48-9.74,8.22-17.45,8.22s-13.37-2.29-17.01-6.86
		s-5.45-10.5-5.45-17.8c0-8.23,2.01-14.63,6.02-19.2s9.55-6.86,16.61-6.86c6.01,0,10.92,1.35,14.74,4.04
		C619.67,25.94,621.93,30.7,622.63,37.53z"/>
	<path d="M672.28,40.12v28.12H659.5V39.11c0-2.58-0.44-4.66-1.32-6.24c-1.14-2.23-3.31-3.34-6.5-3.34c-3.31,0-5.82,1.11-7.54,3.32
		c-1.71,2.21-2.57,5.37-2.57,9.47v25.93h-12.48V3.69h12.48v22.9c1.82-2.78,3.92-4.72,6.31-5.82s4.9-1.65,7.54-1.65
		c2.96,0,5.65,0.51,8.06,1.54c2.42,1.03,4.4,2.59,5.95,4.7c1.32,1.79,2.12,3.63,2.42,5.52S672.28,35.84,672.28,40.12z"/>
	<path d="M694.6,3.07v11.56h-12.7V3.07H694.6z M694.6,20.34v47.9h-12.7v-47.9H694.6z"/>
	<path d="M699.78,20.34h14.06l9.98,35.33l10.2-35.33h13.45l-17.27,47.9h-13.23L699.78,20.34z"/>
	<path d="M793.28,54.18c-0.32,2.84-1.8,5.73-4.44,8.66c-4.1,4.66-9.84,6.99-17.23,6.99c-6.09,0-11.47-1.96-16.13-5.89
		s-6.99-10.31-6.99-19.16c0-8.29,2.1-14.65,6.31-19.07c4.2-4.42,9.66-6.64,16.37-6.64c3.98,0,7.57,0.75,10.77,2.24
		s5.83,3.85,7.91,7.08c1.88,2.84,3.09,6.14,3.65,9.89c0.32,2.2,0.45,5.36,0.4,9.49h-32.78c0.18,4.81,1.68,8.17,4.53,10.11
		c1.73,1.2,3.81,1.8,6.24,1.8c2.58,0,4.67-0.73,6.28-2.2c0.88-0.79,1.66-1.89,2.33-3.3H793.28z M780.89,39.5
		c-0.21-3.31-1.21-5.82-3.01-7.54c-1.8-1.71-4.04-2.57-6.7-2.57c-2.9,0-5.15,0.91-6.75,2.72c-1.6,1.82-2.6,4.28-3.01,7.38H780.89z"
		/>
	<path d="M799.87,55.15h13.32v13.1h-13.32V55.15z"/>
</g>
<text transform="matrix(1 0 0 1 786.0361 17.1729)" class="st0 st1">TM</text>
</svg>
